<svg xmlns="http://www.w3.org/2000/svg" width="200" height="200" viewBox="0 0 200 200" version="1.1"><path d="M 130.768 53.725 C 132.565 53.947, 135.265 53.943, 136.768 53.715 C 138.271 53.486, 136.800 53.304, 133.500 53.310 C 130.200 53.315, 128.971 53.502, 130.768 53.725 M 83.079 77.628 C 82.958 79.362, 85.689 81.312, 86.470 80.049 C 86.826 79.472, 86.454 79, 85.642 79 C 84.831 79, 83.940 78.438, 83.662 77.750 C 83.345 76.965, 83.129 76.919, 83.079 77.628" stroke="none" fill="#61c5ff" fill-rule="evenodd"/><path d="M 76.750 36.984 C 75.237 38.573, 74 40.351, 74 40.936 C 74 41.598, 71.031 42, 66.152 42 L 58.303 42 56.732 46 L 55.161 50 64.089 50 C 72.556 50, 72.957 49.903, 71.851 48.132 C 71.209 47.105, 70.966 45.530, 71.311 44.632 C 71.856 43.211, 74.235 42.991, 89.719 42.931 L 107.500 42.862 100.064 40.594 C 95.292 39.138, 92.113 37.550, 91.192 36.163 C 88.854 32.642, 87 33.454, 87 38 C 87 41.600, 86.750 42, 84.500 42 C 82.250 42, 82 41.600, 82 38 C 82 33.200, 80.610 32.931, 76.750 36.984 M 125 35.500 C 125 36.433, 125.944 37, 127.500 37 C 129.056 37, 130 36.433, 130 35.500 C 130 34.567, 129.056 34, 127.500 34 C 125.944 34, 125 34.567, 125 35.500 M 135 35.570 C 135 36.612, 135.729 37.032, 137.172 36.820 C 140.373 36.348, 140.716 34, 137.583 34 C 135.903 34, 135 34.549, 135 35.570 M 72.930 51.584 C 72.207 52.455, 71.423 55.830, 71.188 59.084 C 70.764 64.933, 70.790 65, 73.426 65 C 75.342 65, 76.573 64.157, 77.797 62.006 C 79.310 59.346, 80.026 59.012, 84.224 59.006 C 88.478 59.001, 89.105 59.303, 90.520 62.038 C 91.837 64.586, 92.688 65.078, 95.795 65.093 C 97.833 65.103, 101.688 65.198, 104.361 65.305 C 109.068 65.494, 109.259 65.391, 110.361 62.082 C 111.411 58.931, 112.160 58.443, 119.955 55.832 C 125.361 54.021, 130.499 53, 134.205 53 C 138.689 53, 140 52.661, 140 51.500 C 140 50.197, 135.680 50, 107.122 50 C 78.342 50, 74.081 50.197, 72.930 51.584 M 63 59.393 C 63 59.609, 63.698 60.054, 64.552 60.382 C 65.442 60.723, 65.843 60.555, 65.493 59.989 C 64.906 59.038, 63 58.583, 63 59.393 M 103.688 59.646 C 102.272 61.061, 103.073 63, 105.073 63 C 106.471 63, 107.041 62.457, 106.823 61.333 C 106.466 59.492, 104.759 58.574, 103.688 59.646 M 64 63 C 63.099 63.582, 62.975 63.975, 63.691 63.985 C 64.346 63.993, 65.160 63.550, 65.500 63 C 66.267 61.758, 65.921 61.758, 64 63" stroke="none" fill="#e1e3f7" fill-rule="evenodd"/><path d="M 133.065 32.421 C 132.098 33.587, 132.254 33.746, 133.932 33.308 C 135.057 33.013, 135.731 32.374, 135.430 31.886 C 134.697 30.701, 134.446 30.757, 133.065 32.421 M 133.813 37.683 C 134.534 37.972, 135.397 37.936, 135.729 37.604 C 136.061 37.272, 135.471 37.036, 134.417 37.079 C 133.252 37.127, 133.015 37.364, 133.813 37.683 M 127.384 40.442 C 126.477 42.805, 127.403 45.454, 129.261 45.812 C 130.651 46.079, 131 45.429, 131 42.573 C 131 40.031, 130.558 39, 129.469 39 C 128.626 39, 127.688 39.649, 127.384 40.442 M 84 69.906 C 84 70.405, 84.900 70.577, 86 70.290 C 87.100 70.002, 88 69.594, 88 69.383 C 88 69.173, 87.100 69, 86 69 C 84.900 69, 84 69.408, 84 69.906 M 85 74.306 C 87.735 75.239, 88.570 76.115, 88.822 78.310 C 88.999 79.856, 88.611 81.763, 87.960 82.549 C 87.024 83.676, 87.113 84.106, 88.387 84.595 C 91.438 85.766, 93 84.248, 93 80.113 C 93 73.643, 92.415 72.993, 86.643 73.056 L 81.500 73.113 85 74.306 M 56.667 74.667 C 55.621 75.713, 55.884 79.652, 57.193 82.523 L 58.385 85.141 59.647 80.868 C 60.553 77.799, 60.605 76.229, 59.832 75.297 C 58.636 73.857, 57.669 73.664, 56.667 74.667 M 109.103 75.376 C 108.380 76.247, 108.379 77.788, 109.099 80.398 C 109.671 82.469, 110.445 86.939, 110.820 90.332 C 111.424 95.811, 111.763 96.537, 113.852 96.833 C 116.471 97.204, 116.462 98.301, 113.966 82.327 C 112.851 75.193, 111.206 72.842, 109.103 75.376" stroke="none" fill="#5339e5" fill-rule="evenodd"/><path d="M 63.500 84 C 63.160 84.550, 62.009 85, 60.941 85 C 53.543 85, 69.276 101.637, 80.824 106.025 C 85.519 107.809, 85.589 107.807, 85.737 105.838 C 85.956 102.938, 87.947 100.920, 92.643 98.838 C 96.977 96.916, 98 95.485, 98 91.341 C 98 89.917, 99.254 87.592, 100.923 85.923 L 103.846 83 100.982 83 C 99.407 83, 97.827 83.472, 97.470 84.048 C 97.114 84.624, 96.075 85.005, 95.161 84.894 C 93.698 84.717, 92.341 85.062, 88.500 86.590 C 87.950 86.808, 86.739 87.534, 85.809 88.202 C 84.440 89.184, 83.757 89.090, 82.230 87.708 C 81.192 86.769, 79.576 86, 78.640 86 C 77.703 86, 76.674 85.314, 76.352 84.474 C 75.915 83.335, 75.432 83.226, 74.447 84.044 C 73.505 84.826, 72.556 84.833, 71.130 84.069 C 68.613 82.722, 64.314 82.683, 63.500 84" stroke="none" fill="#6ad394" fill-rule="evenodd"/><path d="M 120.450 84.081 C 120.082 84.676, 118.782 84.911, 117.561 84.605 C 115.423 84.068, 115.356 84.263, 115.788 89.774 C 116.041 93.001, 116.931 96.289, 117.826 97.309 C 120.115 99.913, 118.206 102.423, 113.641 102.811 C 109.466 103.166, 107.867 101.044, 109.879 97.822 C 110.958 96.095, 110.861 93.335, 109.481 86.500 C 109.178 85, 108.196 84.456, 105.555 84.322 C 101.446 84.115, 98.010 87.548, 97.985 91.885 C 97.963 95.537, 97.005 96.706, 91.935 99.265 C 87.367 101.571, 84.332 105.732, 86.002 107.402 C 87.553 108.953, 102.389 109.344, 108.153 107.986 C 114.641 106.457, 121.154 103.275, 126.462 99.042 C 130.946 95.465, 138 86.513, 138 84.400 C 138 82.585, 133.950 82.585, 131.468 84.400 C 129.826 85.600, 129.267 85.600, 127.554 84.400 C 125.177 82.735, 121.387 82.565, 120.450 84.081" stroke="none" fill="#b9e746" fill-rule="evenodd"/><path d="M 122.813 36.683 C 123.534 36.972, 124.397 36.936, 124.729 36.604 C 125.061 36.272, 124.471 36.036, 123.417 36.079 C 122.252 36.127, 122.015 36.364, 122.813 36.683 M 129.813 46.683 C 130.534 46.972, 131.397 46.936, 131.729 46.604 C 132.061 46.272, 131.471 46.036, 130.417 46.079 C 129.252 46.127, 129.015 46.364, 129.813 46.683 M 84 78 C 84 78.550, 84.675 79, 85.500 79 C 86.325 79, 87 78.550, 87 78 C 87 77.450, 86.325 77, 85.500 77 C 84.675 77, 84 77.450, 84 78 M 83 130.437 C 83 133.825, 82.948 133.866, 79.400 133.290 C 76.892 132.883, 75.531 133.130, 74.915 134.103 C 73.594 136.189, 73.812 147.412, 75.200 148.800 C 76.743 150.343, 80.257 150.343, 81.800 148.800 C 82.733 147.867, 83 147.867, 83 148.800 C 83 149.460, 84.125 150, 85.500 150 L 88 150 88 138.500 L 88 127 85.500 127 C 83.318 127, 83 127.438, 83 130.437 M 125 128.500 C 125 129.433, 125.944 130, 127.500 130 C 129.056 130, 130 129.433, 130 128.500 C 130 127.567, 129.056 127, 127.500 127 C 125.944 127, 125 127.567, 125 128.500 M 45.217 136.750 C 43.978 141.563, 42.695 146.512, 42.366 147.750 C 41.858 149.657, 42.160 150, 44.348 150 C 45.906 150, 47.354 149.207, 48 148 C 48.613 146.854, 50.094 146, 51.468 146 C 52.987 146, 54.098 146.733, 54.500 148 C 54.906 149.278, 56.013 150, 57.567 150 C 60.436 150, 60.473 149.650, 58.439 141.644 C 54.657 126.752, 55.319 128, 51.196 128 L 47.469 128 45.217 136.750 M 63 141.536 C 63 149.898, 63.030 150, 65.500 150 C 67.886 150, 68 149.729, 68 144.067 C 68 139.013, 68.296 138.041, 70 137.500 C 71.100 137.151, 72 136.053, 72 135.059 C 72 133.599, 71.139 133.236, 67.500 133.163 L 63 133.073 63 141.536 M 91 139.929 C 91 144.894, 91.445 147.302, 92.571 148.429 C 94.443 150.300, 97.139 150.461, 98.800 148.800 C 99.733 147.867, 100 147.867, 100 148.800 C 100 149.460, 101.125 150, 102.500 150 C 104.971 150, 105 149.900, 105 141.500 C 105 133.144, 104.958 133, 102.548 133 C 100.242 133, 100.078 133.368, 99.798 139.171 C 99.613 142.991, 99.024 145.498, 98.250 145.754 C 97.335 146.056, 97 144.403, 97 139.583 L 97 133 94 133 L 91 133 91 139.929 M 109.244 134.156 C 107.660 135.740, 107.634 140.234, 109.200 141.800 C 109.860 142.460, 111.660 143, 113.200 143 C 114.938 143, 116 143.533, 116 144.405 C 116 145.467, 115.023 145.679, 112 145.273 C 107.699 144.696, 106.890 145.747, 109.571 148.429 C 111.181 150.038, 117.612 150.554, 119.615 149.235 C 121.444 148.030, 122.188 144.219, 121.020 142.038 C 120.307 140.705, 118.924 140, 117.024 140 C 113.684 140, 112.205 138.361, 114.012 136.663 C 114.955 135.777, 115.359 135.798, 115.708 136.750 C 115.960 137.438, 117.285 138, 118.653 138 C 120.659 138, 121.077 137.566, 120.820 135.750 C 120.544 133.807, 119.817 133.460, 115.494 133.206 C 112.464 133.028, 109.997 133.403, 109.244 134.156 M 125 141.500 C 125 149.900, 125.029 150, 127.500 150 C 129.971 150, 130 149.900, 130 141.500 C 130 133.100, 129.971 133, 127.500 133 C 125.029 133, 125 133.100, 125 141.500 M 134 141.571 C 134 149.853, 134.043 150, 136.454 150 C 138.778 150, 138.924 149.655, 139.204 143.491 C 139.367 139.911, 139.950 136.982, 140.500 136.982 C 141.050 136.982, 141.633 139.911, 141.796 143.491 C 142.074 149.618, 142.233 150, 144.498 150 C 146.752 150, 146.923 149.603, 147.202 143.750 C 147.429 138.993, 147.858 137.500, 149 137.500 C 150.142 137.500, 150.571 138.993, 150.798 143.750 C 151.078 149.637, 151.238 150, 153.548 150 C 155.927 150, 156 149.782, 156 142.700 C 156 138.356, 155.514 134.914, 154.800 134.200 C 153.283 132.683, 148 132.623, 148 134.122 C 148 134.915, 147.628 134.936, 146.734 134.194 C 146.037 133.616, 142.887 133.143, 139.734 133.143 L 134 133.143 134 141.571 M 50.833 135.531 C 49.502 137.849, 49.068 141.924, 50.083 142.552 C 52.069 143.779, 53.170 141.434, 52.258 137.917 C 51.780 136.072, 51.139 134.998, 50.833 135.531 M 79.426 138.332 C 78.413 140.971, 79.408 145.500, 81 145.500 C 82.078 145.500, 82.500 144.398, 82.500 141.583 C 82.500 137.617, 80.509 135.511, 79.426 138.332 M 48 158 C 48 159.467, 48.667 160, 50.500 160 C 52.333 160, 53 159.467, 53 158 C 53 156.533, 52.333 156, 50.500 156 C 48.667 156, 48 156.533, 48 158 M 103 168.500 L 103 181 105.500 181 L 108 181 108 168.500 L 108 156 105.500 156 L 103 156 103 168.500 M 131 161 C 131 162.100, 130.550 163, 130 163 C 129.450 163, 129 163.900, 129 165 C 129 166.100, 129.450 167, 130 167 C 130.552 167, 131 169.600, 131 172.800 C 131 179.277, 132.093 181, 136.200 181 C 138.333 181, 139 180.524, 139 179 C 139 177.900, 138.550 177, 138 177 C 137.450 177, 137 174.750, 137 172 C 137 169.250, 137.450 167, 138 167 C 138.550 167, 139 166.100, 139 165 C 139 163.900, 138.550 163, 138 163 C 137.450 163, 137 162.100, 137 161 C 137 159.444, 136.333 159, 134 159 C 131.667 159, 131 159.444, 131 161 M 31.200 164.200 C 29.871 165.529, 29.620 169.855, 30.768 171.658 C 31.173 172.295, 33.191 173.133, 35.252 173.520 C 38.875 174.199, 40.684 177, 37.500 177 C 36.675 177, 36 176.550, 36 176 C 36 175.450, 34.650 175, 33 175 C 31.067 175, 30 175.508, 30 176.429 C 30 179.006, 33.049 181, 36.990 181 C 43.119 181, 44 180.309, 44 175.500 C 44 170.962, 43.024 170, 38.418 170 C 36.667 170, 36 169.449, 36 168 C 36 165.891, 37.455 165.309, 38.500 167 C 38.840 167.550, 40.216 168, 41.559 168 C 44.383 168, 45.045 164.615, 42.418 163.607 C 39.695 162.562, 32.455 162.945, 31.200 164.200 M 48 172 C 48 180.933, 48.019 181, 50.500 181 C 52.981 181, 53 180.933, 53 172 C 53 163.067, 52.981 163, 50.500 163 C 48.019 163, 48 163.067, 48 172 M 57 172 L 57 181 60 181 L 63 181 63 174 C 63 168.444, 63.310 167, 64.500 167 C 65.690 167, 66 168.444, 66 174 L 66 181 69 181 L 72 181 72 174 C 72 168.444, 72.310 167, 73.500 167 C 74.690 167, 75 168.444, 75 174 L 75 181 78 181 L 81 181 81 173.200 C 81 168.467, 80.528 164.928, 79.800 164.200 C 78.303 162.703, 73.765 162.635, 72.313 164.087 C 71.530 164.870, 71.038 164.870, 70.554 164.087 C 69.628 162.589, 64.282 162.715, 63.662 164.250 C 63.259 165.250, 63.142 165.250, 63.079 164.250 C 63.034 163.545, 61.691 163, 60 163 L 57 163 57 172 M 84 170.800 C 84 179.030, 84.869 181, 88.500 181 C 89.655 181, 91.140 180.460, 91.800 179.800 C 92.733 178.867, 93 178.867, 93 179.800 C 93 180.467, 94.333 181, 96 181 L 99 181 99 172 L 99 163 96 163 L 93 163 93 170.083 C 93 175.304, 92.671 177.058, 91.750 176.754 C 90.959 176.492, 90.392 173.893, 90.204 169.670 C 89.909 163.015, 89.902 163, 86.954 163 L 84 163 84 170.800 M 112.578 163.755 C 112.260 164.073, 112 167.543, 112 171.467 C 112 179.007, 112.941 181, 116.500 181 C 117.655 181, 119.140 180.460, 119.800 179.800 C 120.733 178.867, 121 178.867, 121 179.800 C 121 180.467, 122.333 181, 124 181 L 127 181 127 172.088 L 127 163.176 120.078 163.176 C 116.272 163.176, 112.897 163.437, 112.578 163.755 M 142.709 163.624 C 142.319 164.014, 142 167.810, 142 172.060 C 142 180.737, 142.220 181, 149.459 181 C 155.304 181, 156.150 179.644, 155.796 170.842 L 155.500 163.500 149.459 163.208 C 146.136 163.047, 143.099 163.234, 142.709 163.624 M 160 172 L 160 181 163 181 L 166 181 166 174.567 C 166 169.013, 166.273 168.048, 168 167.500 C 169.100 167.151, 170 165.996, 170 164.933 C 170 162.763, 168.019 162.381, 166.200 164.200 C 165.267 165.133, 165 165.133, 165 164.200 C 165 163.540, 163.875 163, 162.500 163 C 160.019 163, 160 163.067, 160 172 M 117.688 167.646 C 116.684 168.650, 116.876 174.255, 117.974 175.992 C 119.511 178.423, 121.178 175.766, 120.818 171.459 C 120.514 167.824, 119.159 166.174, 117.688 167.646 M 147 172.073 C 147 176.365, 147.270 177.095, 148.750 176.814 C 150.069 176.564, 150.575 175.313, 150.805 171.741 C 151.076 167.526, 150.882 167, 149.055 167 C 147.252 167, 147 167.622, 147 172.073" stroke="none" fill="#9ed6ff" fill-rule="evenodd"/><path d="M 65.437 32.250 L 62.500 35.500 65.750 32.563 C 67.537 30.948, 69 29.485, 69 29.313 C 69 28.540, 68.175 29.221, 65.437 32.250 M 128.237 31.240 C 128.931 32.722, 129.665 33.455, 129.866 32.869 C 130.067 32.283, 129.499 31.070, 128.603 30.174 C 127.097 28.668, 127.069 28.749, 128.237 31.240 M 133.750 33.689 C 131.616 34.247, 131.408 37, 133.500 37 C 134.325 37, 135 36.325, 135 35.500 C 135 34.332, 136.340 34, 141.059 34 C 145.384 34, 146.914 34.330, 146.405 35.155 C 145.959 35.876, 146.131 36.037, 146.862 35.585 C 149.251 34.109, 146.713 33.003, 141.191 33.116 C 138.061 33.180, 134.713 33.438, 133.750 33.689 M 62.269 66.693 C 63.242 66.947, 64.592 66.930, 65.269 66.656 C 65.946 66.382, 65.150 66.175, 63.500 66.195 C 61.850 66.215, 61.296 66.439, 62.269 66.693 M 103 66.861 C 103 67.335, 104.125 67.508, 105.500 67.245 C 106.875 66.982, 108 66.594, 108 66.383 C 108 66.173, 106.875 66, 105.500 66 C 104.125 66, 103 66.388, 103 66.861 M 87.459 71.067 C 87.096 71.653, 87.014 72.348, 87.276 72.610 C 87.538 72.872, 88.019 72.392, 88.345 71.543 C 89.021 69.781, 88.445 69.471, 87.459 71.067 M 79.500 72 C 77.870 72.701, 77.812 72.872, 79.191 72.930 C 80.121 72.968, 81.160 72.550, 81.500 72 C 82.211 70.850, 82.176 70.850, 79.500 72 M 54 77 C 54 77.550, 54.450 78, 55 78 C 55.550 78, 56 77.550, 56 77 C 56 76.450, 55.550 76, 55 76 C 54.450 76, 54 76.450, 54 77 M 114.079 82.583 C 114.127 83.748, 114.364 83.985, 114.683 83.188 C 114.972 82.466, 114.936 81.603, 114.604 81.271 C 114.272 80.939, 114.036 81.529, 114.079 82.583 M 83.813 83.683 C 84.534 83.972, 85.397 83.936, 85.729 83.604 C 86.061 83.272, 85.471 83.036, 84.417 83.079 C 83.252 83.127, 83.015 83.364, 83.813 83.683 M 78.500 85.724 C 79.600 85.994, 81.073 86.680, 81.773 87.249 C 82.732 88.028, 82.891 87.878, 82.416 86.641 C 82.033 85.643, 80.750 85.045, 79.143 85.116 C 77.058 85.208, 76.922 85.336, 78.500 85.724 M 115.079 90.583 C 115.127 91.748, 115.364 91.985, 115.683 91.188 C 115.972 90.466, 115.936 89.603, 115.604 89.271 C 115.272 88.939, 115.036 89.529, 115.079 90.583 M 110.028 97.466 C 109.359 98.273, 108.966 99.383, 109.155 99.934 C 109.345 100.484, 110.020 99.824, 110.656 98.467 C 111.974 95.654, 111.783 95.351, 110.028 97.466 M 113.380 98.452 C 113.074 99.251, 113.093 100.342, 113.424 100.876 C 113.754 101.411, 113.231 102.055, 112.262 102.308 C 111.080 102.617, 111.343 102.806, 113.059 102.884 C 114.466 102.948, 116.474 102.374, 117.521 101.608 C 119.138 100.426, 119.224 99.975, 118.090 98.608 C 116.429 96.607, 114.118 96.530, 113.380 98.452 M 92.813 109.683 C 93.534 109.972, 94.397 109.936, 94.729 109.604 C 95.061 109.272, 94.471 109.036, 93.417 109.079 C 92.252 109.127, 92.015 109.364, 92.813 109.683 M 101.813 109.683 C 102.534 109.972, 103.397 109.936, 103.729 109.604 C 104.061 109.272, 103.471 109.036, 102.417 109.079 C 101.252 109.127, 101.015 109.364, 101.813 109.683 M 88.214 137.881 L 88 150.262 84.250 149.659 C 81.677 149.246, 80.971 149.357, 82 150.013 C 84.177 151.401, 87.981 151.213, 88.566 149.689 C 88.843 148.968, 88.925 143.230, 88.748 136.939 L 88.428 125.500 88.214 137.881 M 130 127.937 C 130 129.372, 129.159 129.978, 126.750 130.277 C 123.550 130.674, 123.558 130.682, 127.250 130.840 C 130.626 130.984, 131 130.751, 131 128.500 C 131 127.125, 130.775 126, 130.500 126 C 130.225 126, 130 126.871, 130 127.937 M 62 132.391 C 62 132.605, 63.543 132.961, 65.430 133.182 C 67.316 133.402, 68.640 133.226, 68.371 132.791 C 67.887 132.008, 62 131.638, 62 132.391 M 72.100 134.167 C 72.045 135.633, 71.438 137.060, 70.750 137.338 C 69.981 137.648, 70.151 137.872, 71.193 137.921 C 72.440 137.979, 72.986 139.117, 73.268 142.250 C 73.640 146.384, 73.653 146.364, 73.726 141.500 C 73.767 138.750, 73.440 135.375, 73 134 L 72.199 131.500 72.100 134.167 M 77.269 132.693 C 78.242 132.947, 79.592 132.930, 80.269 132.656 C 80.946 132.382, 80.150 132.175, 78.500 132.195 C 76.850 132.215, 76.296 132.439, 77.269 132.693 M 92.250 132.689 C 93.213 132.941, 94.787 132.941, 95.750 132.689 C 96.713 132.438, 95.925 132.232, 94 132.232 C 92.075 132.232, 91.287 132.438, 92.250 132.689 M 98.832 138.908 C 98.649 142.707, 98.838 145.606, 99.250 145.349 C 99.662 145.092, 100 142.209, 100 138.941 C 100 133.271, 100.114 133, 102.500 133 C 104.971 133, 105 133.100, 105 141.500 C 105 149.822, 104.949 150, 102.583 150 C 101.254 150, 99.987 149.460, 99.766 148.799 C 99.463 147.888, 99.191 147.881, 98.642 148.770 C 98.186 149.508, 98.857 150.177, 100.457 150.579 C 105.424 151.825, 106 150.832, 106 141.031 L 106 132 102.582 132 L 99.164 132 98.832 138.908 M 112.750 132.706 C 113.987 132.944, 116.013 132.944, 117.250 132.706 C 118.487 132.467, 117.475 132.272, 115 132.272 C 112.525 132.272, 111.513 132.467, 112.750 132.706 M 127 132.563 L 130 133.127 130 141.500 C 130 149.869, 129.999 149.873, 127.250 150.280 C 124.655 150.663, 124.670 150.681, 127.500 150.593 L 130.500 150.500 130.500 141.500 L 130.500 132.500 127.250 132.250 C 124.046 132.004, 124.042 132.008, 127 132.563 M 133 132.391 C 133 132.605, 134.543 132.961, 136.430 133.182 C 138.316 133.402, 139.640 133.226, 139.371 132.791 C 138.887 132.008, 133 131.638, 133 132.391 M 141.750 132.662 C 142.438 132.940, 143.563 132.940, 144.250 132.662 C 144.938 132.385, 144.375 132.158, 143 132.158 C 141.625 132.158, 141.063 132.385, 141.750 132.662 M 150.269 132.693 C 151.242 132.947, 152.592 132.930, 153.269 132.656 C 153.946 132.382, 153.150 132.175, 151.500 132.195 C 149.850 132.215, 149.296 132.439, 150.269 132.693 M 50.459 137.067 C 50.096 137.653, 50.014 138.348, 50.276 138.610 C 50.538 138.872, 51.019 138.392, 51.345 137.543 C 52.021 135.781, 51.445 135.471, 50.459 137.067 M 139.189 143.187 L 139 149.873 135.750 150.277 L 132.500 150.680 135.781 150.840 C 139.771 151.035, 140.220 150.077, 139.743 142.388 L 139.378 136.500 139.189 143.187 M 141.432 144 L 141.500 150.500 144.500 150.593 C 147.238 150.678, 147.263 150.651, 144.794 150.283 C 142.236 149.902, 142.069 149.542, 141.726 143.690 L 141.363 137.500 141.432 144 M 156.189 143.187 L 156 149.873 152.750 150.277 L 149.500 150.680 152.781 150.840 C 156.771 151.035, 157.220 150.077, 156.743 142.388 L 156.378 136.500 156.189 143.187 M 115.500 139 C 114.759 140.199, 117.709 140.199, 120.500 139 C 122.186 138.276, 121.999 138.130, 119.309 138.070 C 117.554 138.032, 115.840 138.450, 115.500 139 M 68.180 144.187 C 68.002 149.808, 67.963 149.878, 64.750 150.277 L 61.500 150.680 64.781 150.840 C 68.691 151.031, 69.254 149.969, 68.740 143.373 L 68.360 138.500 68.180 144.187 M 112.750 143.662 C 113.438 143.940, 114.563 143.940, 115.250 143.662 C 115.938 143.385, 115.375 143.158, 114 143.158 C 112.625 143.158, 112.063 143.385, 112.750 143.662 M 41.879 150.279 C 42.362 150.762, 44.049 150.995, 45.628 150.798 C 48.272 150.468, 48.202 150.399, 44.751 149.921 C 42.601 149.623, 41.376 149.776, 41.879 150.279 M 56.250 150.689 C 57.212 150.941, 58.788 150.941, 59.750 150.689 C 60.712 150.438, 59.925 150.232, 58 150.232 C 56.075 150.232, 55.288 150.438, 56.250 150.689 M 113.750 150.662 C 114.438 150.940, 115.563 150.940, 116.250 150.662 C 116.938 150.385, 116.375 150.158, 115 150.158 C 113.625 150.158, 113.063 150.385, 113.750 150.662 M 130.290 160 C 130.002 161.100, 129.369 162, 128.883 162 C 128.398 162, 128.045 163.238, 128.100 164.750 C 128.205 167.656, 128.359 167.430, 130.454 161.306 C 130.963 159.816, 132.215 158.984, 134.352 158.716 L 137.500 158.320 134.156 158.160 C 131.577 158.037, 130.693 158.457, 130.290 160 M 48.762 160.707 C 50.006 160.946, 51.806 160.937, 52.762 160.687 C 53.718 160.437, 52.700 160.241, 50.500 160.252 C 48.300 160.263, 47.518 160.468, 48.762 160.707 M 35.264 162.718 C 36.784 162.947, 39.034 162.941, 40.264 162.704 C 41.494 162.467, 40.250 162.279, 37.500 162.286 C 34.750 162.294, 33.744 162.488, 35.264 162.718 M 48.762 162.707 C 50.006 162.946, 51.806 162.937, 52.762 162.687 C 53.718 162.437, 52.700 162.241, 50.500 162.252 C 48.300 162.263, 47.518 162.468, 48.762 162.707 M 56.425 163.334 C 56.144 164.067, 56.046 168.455, 56.207 173.084 L 56.500 181.500 60 181.500 L 63.500 181.500 63.576 174 L 63.651 166.500 63.282 173.750 L 62.912 181 59.956 181 L 57 181 57 172.063 L 57 163.127 60.250 162.723 L 63.500 162.320 60.219 162.160 C 58.281 162.066, 56.728 162.546, 56.425 163.334 M 65.750 162.662 C 66.438 162.940, 67.563 162.940, 68.250 162.662 C 68.938 162.385, 68.375 162.158, 67 162.158 C 65.625 162.158, 65.063 162.385, 65.750 162.662 M 75.269 162.693 C 76.242 162.947, 77.592 162.930, 78.269 162.656 C 78.946 162.382, 78.150 162.175, 76.500 162.195 C 74.850 162.215, 74.296 162.439, 75.269 162.693 M 87 162.563 C 89.961 163.119, 90 163.210, 90 169.504 C 90 173.012, 90.338 176.092, 90.750 176.348 C 91.162 176.604, 91.275 173.593, 91 169.657 L 90.500 162.500 87.250 162.250 C 84.046 162.004, 84.042 162.008, 87 162.563 M 96 162.563 L 99 163.127 99 172 L 99 180.873 96.250 181.280 C 93.655 181.663, 93.670 181.681, 96.500 181.593 L 99.500 181.500 99.500 172 L 99.500 162.500 96.250 162.250 C 93.046 162.004, 93.042 162.008, 96 162.563 M 115.269 162.693 C 116.242 162.947, 117.592 162.930, 118.269 162.656 C 118.946 162.382, 118.150 162.175, 116.500 162.195 C 114.850 162.215, 114.296 162.439, 115.269 162.693 M 120 162.799 C 120 163.239, 121.575 163.415, 123.500 163.190 C 125.425 162.965, 127 162.605, 127 162.391 C 127 162.176, 125.425 162, 123.500 162 C 121.575 162, 120 162.360, 120 162.799 M 137.634 162.765 C 138.258 163.169, 138.993 164.400, 139.268 165.500 C 139.651 167.033, 139.795 166.858, 139.884 164.750 C 139.968 162.748, 139.524 162.004, 138.250 162.015 C 137.139 162.025, 136.914 162.299, 137.634 162.765 M 146.250 162.716 C 147.762 162.945, 150.238 162.945, 151.750 162.716 C 153.262 162.487, 152.025 162.300, 149 162.300 C 145.975 162.300, 144.738 162.487, 146.250 162.716 M 159.214 171.750 L 159.500 181.500 162.500 181.593 C 165.330 181.681, 165.345 181.663, 162.750 181.280 L 160 180.873 160 171.827 L 160 162.781 163.430 163.182 C 165.316 163.402, 166.640 163.226, 166.371 162.791 C 166.102 162.356, 164.317 162, 162.405 162 L 158.928 162 159.214 171.750 M 170.232 165 C 170.232 166.925, 170.438 167.713, 170.689 166.750 C 170.941 165.787, 170.941 164.213, 170.689 163.250 C 170.438 162.287, 170.232 163.075, 170.232 165 M 44.158 167 C 44.158 168.375, 44.385 168.938, 44.662 168.250 C 44.940 167.563, 44.940 166.438, 44.662 165.750 C 44.385 165.063, 44.158 165.625, 44.158 167 M 111.336 172 C 111.336 176.125, 111.513 177.813, 111.728 175.750 C 111.944 173.688, 111.944 170.313, 111.728 168.250 C 111.513 166.188, 111.336 167.875, 111.336 172 M 36.079 168.583 C 36.127 169.748, 36.364 169.985, 36.683 169.188 C 36.972 168.466, 36.936 167.603, 36.604 167.271 C 36.272 166.939, 36.036 167.529, 36.079 168.583 M 65.424 174 L 65.500 181.500 69 181.500 L 72.500 181.500 72.568 175 L 72.637 168.500 72.273 174.750 C 71.914 180.902, 71.863 181, 68.998 181 L 66.088 181 65.718 173.750 L 65.349 166.500 65.424 174 M 74.424 174 L 74.500 181.500 78 181.500 L 81.500 181.500 81.566 174.500 L 81.631 167.500 81.272 174.250 C 80.915 180.956, 80.893 181, 78 181 L 75.088 181 74.718 173.750 L 74.349 166.500 74.424 174 M 130.310 172.500 C 130.315 175.800, 130.502 177.029, 130.725 175.232 C 130.947 173.435, 130.943 170.735, 130.715 169.232 C 130.486 167.729, 130.304 169.200, 130.310 172.500 M 120.252 171.500 C 120.263 173.700, 120.468 174.482, 120.707 173.238 C 120.946 171.994, 120.937 170.194, 120.687 169.238 C 120.437 168.282, 120.241 169.300, 120.252 171.500 M 147.402 172.243 C 147.473 175.317, 147.917 176.500, 149 176.500 C 150.095 176.500, 150.530 175.284, 150.610 172 L 150.720 167.500 150.302 171.750 C 149.775 177.121, 148.243 177.264, 147.709 171.993 L 147.304 167.985 147.402 172.243 M 138.739 178.417 C 139.093 180.269, 138.706 180.944, 137.085 181.300 C 135.143 181.728, 135.155 181.755, 137.235 181.633 C 138.921 181.534, 139.581 180.797, 139.816 178.750 C 139.990 177.238, 139.715 176, 139.205 176 C 138.695 176, 138.485 177.088, 138.739 178.417 M 120 181.013 C 120.825 181.539, 122.813 181.976, 124.417 181.985 C 128.285 182.005, 127.443 181.428, 122.500 180.670 C 119.776 180.252, 118.979 180.362, 120 181.013 M 36.269 181.693 C 37.242 181.947, 38.592 181.930, 39.269 181.656 C 39.946 181.382, 39.150 181.175, 37.500 181.195 C 35.850 181.215, 35.296 181.439, 36.269 181.693 M 48.762 181.707 C 50.006 181.946, 51.806 181.937, 52.762 181.687 C 53.718 181.437, 52.700 181.241, 50.500 181.252 C 48.300 181.263, 47.518 181.468, 48.762 181.707 M 103.762 181.707 C 105.006 181.946, 106.806 181.937, 107.762 181.687 C 108.718 181.437, 107.700 181.241, 105.500 181.252 C 103.300 181.263, 102.518 181.468, 103.762 181.707 M 147.250 181.689 C 148.213 181.941, 149.787 181.941, 150.750 181.689 C 151.713 181.438, 150.925 181.232, 149 181.232 C 147.075 181.232, 146.287 181.438, 147.250 181.689" stroke="none" fill="#6460e7" fill-rule="evenodd"/><path d="M -0 100.005 L -0 200.010 100.250 199.755 L 200.500 199.500 200.755 99.750 L 201.010 0 100.505 0 L 0 0 -0 100.005 M 0.481 100.500 C 0.481 155.500, 0.602 178.147, 0.750 150.826 C 0.898 123.506, 0.898 78.506, 0.750 50.826 C 0.602 23.147, 0.481 45.500, 0.481 100.500 M 88.263 19.514 C 70.135 23.452, 55.889 38.580, 52.915 57.049 C 48.022 87.430, 74.971 114.279, 105.250 109.188 C 133.693 104.407, 151.002 75.074, 140.964 48.664 C 139.884 45.824, 139.001 42.745, 139.001 41.821 C 139 40.898, 138.293 39.436, 137.429 38.571 C 136 37.143, 136.300 37, 140.729 37 C 145.217 37, 148 35.775, 148 33.800 C 148 33.360, 145.310 33, 142.023 33 C 136.757 33, 135.852 32.704, 134.414 30.509 C 133.516 29.138, 132.380 28.265, 131.891 28.568 C 130.811 29.235, 130.700 31.047, 131.750 30.882 C 133.706 30.573, 134.137 31.130, 133 32.500 C 131.433 34.389, 130 34.431, 130 32.589 C 130 28.587, 115.476 20.722, 105 19.052 C 97.059 17.785, 96.098 17.812, 88.263 19.514 M 129.750 37.662 C 130.438 37.940, 131.563 37.940, 132.250 37.662 C 132.938 37.385, 132.375 37.158, 131 37.158 C 129.625 37.158, 129.063 37.385, 129.750 37.662 M 57.537 70.199 C 55.722 74.736, 55.653 75.333, 57.044 74.473 C 57.618 74.118, 58.754 74.381, 59.568 75.056 C 60.382 75.732, 61.163 76.108, 61.304 75.893 C 61.794 75.139, 65 67.929, 65 67.580 C 65 67.386, 63.667 67.031, 62.037 66.792 C 59.383 66.403, 58.914 66.757, 57.537 70.199 M 106.174 66.716 C 104.465 67.041, 104.027 67.603, 104.526 68.830 C 104.899 69.748, 105.653 71.737, 106.200 73.250 C 107.222 76.072, 108.429 76.733, 109.473 75.044 C 109.798 74.518, 110.712 74.336, 111.504 74.640 C 112.728 75.110, 112.710 74.504, 111.378 70.596 C 110.517 68.068, 109.517 66.061, 109.156 66.136 C 108.795 66.211, 107.453 66.472, 106.174 66.716 M 80 70 C 80 70.550, 80.900 71, 82 71 C 83.100 71, 84 70.550, 84 70 C 84 69.450, 83.100 69, 82 69 C 80.900 69, 80 69.450, 80 70 M 76 79 L 76 85 82.059 85 C 85.659 85, 87.878 84.612, 87.527 84.044 C 87.202 83.518, 86.311 83.327, 85.546 83.621 C 81.407 85.209, 78.182 78.961, 81.452 75.690 C 83.285 73.858, 82.451 73, 78.833 73 C 76.037 73, 76 73.078, 76 79 M 82 129 C 82 131.602, 81.635 132.002, 79.250 132.015 C 76.088 132.033, 74.540 132.870, 73.729 135 C 73.347 136.002, 73.132 135.753, 73.079 134.250 C 73.007 132.199, 72.514 132, 67.500 132 L 62 132 62 141.500 L 62 151 65.500 151 L 69 151 69 144.500 C 69 138.667, 69.205 138, 71 138 C 72.691 138, 73 138.667, 73 142.309 C 73 148.774, 74.460 150.086, 82.299 150.665 L 89 151.160 89 138.580 L 89 126 85.500 126 C 82.278 126, 82 126.238, 82 129 M 124 128.500 C 124 130.690, 124.433 131, 127.500 131 C 130.567 131, 131 130.690, 131 128.500 C 131 126.310, 130.567 126, 127.500 126 C 124.433 126, 124 126.310, 124 128.500 M 45.991 131.195 C 45.378 133.563, 44.004 138.679, 42.938 142.564 C 41.872 146.449, 41 149.936, 41 150.314 C 41 150.691, 42.523 151, 44.383 151 C 46.926 151, 47.897 150.503, 48.290 149 C 48.643 147.649, 49.654 147, 51.406 147 C 53.333 147, 54 147.514, 54 149 C 54 150.619, 54.667 151, 57.500 151 C 61.751 151, 61.754 150.952, 58.167 137.500 L 55.500 127.500 51.303 127.195 C 47.123 126.891, 47.102 126.907, 45.991 131.195 M 91 140.441 C 91 145.381, 91.446 149.157, 92.075 149.546 C 92.666 149.912, 96.041 150.424, 99.575 150.685 L 106 151.160 106 141.580 L 106 132 102.500 132 L 99 132 99 138.500 C 99 142.167, 98.564 145, 98 145 C 97.436 145, 97 142.167, 97 138.500 L 97 132 94 132 L 91 132 91 140.441 M 109.200 133.200 C 108.540 133.860, 108 136.125, 108 138.232 C 108 141.272, 108.465 142.252, 110.250 142.969 L 112.500 143.873 110.184 143.937 C 108.269 143.989, 107.922 144.467, 108.184 146.692 C 108.429 148.781, 109.228 149.572, 111.750 150.221 C 113.537 150.681, 116.462 150.681, 118.250 150.221 C 121.105 149.486, 121.538 148.927, 121.815 145.622 C 121.988 143.553, 121.595 141.217, 120.942 140.430 C 120.096 139.411, 120.078 139, 120.878 139 C 122.373 139, 122.316 134.716, 120.800 133.200 C 120.140 132.540, 117.530 132, 115 132 C 112.470 132, 109.860 132.540, 109.200 133.200 M 124 141.500 L 124 151 127.500 151 L 131 151 131 141.500 L 131 132 127.500 132 L 124 132 124 141.500 M 133 141.581 L 133 151 136.456 151 L 139.912 151 140.257 143.750 L 140.603 136.500 140.801 143.750 L 141 151 144.500 151 L 148 151 148 144 C 148 140, 148.429 137, 149 137 C 149.571 137, 150 140, 150 144 L 150 151 153.603 151 L 157.205 151 156.853 142.463 C 156.610 136.596, 156.069 133.660, 155.120 133.074 C 154.362 132.605, 149.074 132.208, 143.370 132.192 L 133 132.162 133 141.581 M 80 141 C 80 143.200, 80.450 145, 81 145 C 81.550 145, 82 143.200, 82 141 C 82 138.800, 81.550 137, 81 137 C 80.450 137, 80 138.800, 80 141 M 114 138 C 114 138.550, 114.450 139, 115 139 C 115.550 139, 116 138.550, 116 138 C 116 137.450, 115.550 137, 115 137 C 114.450 137, 114 137.450, 114 138 M 50.531 139.293 C 50.103 140.279, 50.034 141.367, 50.376 141.710 C 51.392 142.725, 52.211 141.299, 51.743 139.328 C 51.329 137.581, 51.275 137.580, 50.531 139.293 M 114 145 C 114 145.550, 114.450 146, 115 146 C 115.550 146, 116 145.550, 116 145 C 116 144.450, 115.550 144, 115 144 C 114.450 144, 114 144.450, 114 145 M 47 158.500 C 47 160.690, 47.433 161, 50.500 161 C 53.567 161, 54 160.690, 54 158.500 C 54 156.310, 53.567 156, 50.500 156 C 47.433 156, 47 156.310, 47 158.500 M 102 169 L 102 182 105.500 182 L 109 182 109 169 L 109 156 105.500 156 L 102 156 102 169 M 130 160 C 130 161.100, 129.550 162, 129 162 C 128.450 162, 128 163.125, 128 164.500 C 128 165.875, 128.450 167, 129 167 C 129.550 167, 130 169.389, 130 172.309 C 130 178.799, 131.382 180.863, 136.253 181.654 C 139.890 182.244, 140 182.173, 140 179.238 C 140 177.472, 139.376 175.974, 138.500 175.638 C 137.510 175.258, 137 173.692, 137 171.031 C 137 168.115, 137.415 167, 138.500 167 C 139.433 167, 140 166.056, 140 164.500 C 140 162.944, 139.433 162, 138.500 162 C 137.667 162, 137 161.111, 137 160 C 137 158.381, 136.333 158, 133.500 158 C 130.667 158, 130 158.381, 130 160 M 31.200 163.200 C 30.540 163.860, 30 166.287, 30 168.593 C 30 173.032, 31 174, 35.582 174 C 37.248 174, 37.975 174.544, 37.921 175.750 C 37.874 176.795, 37.639 176.997, 37.338 176.250 C 37.060 175.563, 35.266 175, 33.350 175 C 30.140 175, 29.892 175.216, 30.184 177.750 C 30.441 179.991, 31.183 180.669, 34.190 181.412 C 39.814 182.801, 44.417 181.150, 44.828 177.597 C 45.471 172.036, 44.306 170, 40.481 170 C 37.802 170, 37.018 169.597, 37.079 168.250 C 37.126 167.205, 37.361 167.003, 37.662 167.750 C 37.940 168.438, 39.704 169, 41.583 169 C 44.291 169, 45 168.600, 45 167.071 C 45 163.784, 42.231 162, 37.129 162 C 34.528 162, 31.860 162.540, 31.200 163.200 M 47 172 L 47 182 50.500 182 L 54 182 54 172 L 54 162 50.500 162 L 47 162 47 172 M 56 172.037 L 56 182 59.956 182 L 63.912 182 64.257 174.750 L 64.603 167.500 64.801 174.750 L 65 182 68.956 182 L 72.912 182 73.257 174.750 L 73.603 167.500 73.801 174.750 L 74 182 78.099 182 L 82.199 182 81.849 172.963 C 81.472 163.214, 80.827 162.044, 75.809 162.015 C 74.329 162.007, 72.826 162.472, 72.470 163.049 C 72.051 163.726, 71.411 163.757, 70.661 163.136 C 70.022 162.607, 66.463 162.152, 62.750 162.125 L 56 162.074 56 172.037 M 84 170.941 C 84 176.071, 84.445 180.157, 85.044 180.527 C 85.617 180.882, 89.217 181.384, 93.044 181.644 L 100 182.117 100 172.058 L 100 162 96.500 162 L 93 162 93 168.441 C 93 171.984, 92.550 175.160, 92 175.500 C 91.369 175.890, 91 173.510, 91 169.059 L 91 162 87.500 162 L 84 162 84 170.941 M 112.723 163.135 C 111.339 163.910, 111.003 165.514, 111.015 171.300 C 111.024 175.260, 111.422 179.118, 111.900 179.873 C 112.455 180.748, 115.348 181.404, 119.885 181.684 L 127 182.121 127 172.098 L 127 162.074 120.723 162.122 C 117.271 162.149, 113.671 162.604, 112.723 163.135 M 142.200 163.200 C 141.471 163.929, 141 167.472, 141 172.225 C 141 179.837, 141.075 180.078, 143.750 181.112 C 147.209 182.448, 154.966 181.661, 156.108 179.859 C 156.582 179.112, 156.976 175.253, 156.985 171.285 C 156.998 165.166, 156.706 163.913, 155.066 163.035 C 152.415 161.617, 143.671 161.729, 142.200 163.200 M 159 172.023 L 159 182 162.500 182 L 166 182 166 176.582 C 166 169.877, 166.679 168, 169.107 168 C 170.528 168, 171 167.279, 171 165.107 C 171 162.248, 170.931 162.214, 165 162.131 L 159 162.046 159 172.023 M 148 171.500 C 148 173.975, 148.450 176, 149 176 C 149.550 176, 150 173.975, 150 171.500 C 150 169.025, 149.550 167, 149 167 C 148.450 167, 148 169.025, 148 171.500 M 118 172 C 118 174.200, 118.450 176, 119 176 C 119.550 176, 120 174.200, 120 172 C 120 169.800, 119.550 168, 119 168 C 118.450 168, 118 169.800, 118 172" stroke="none" fill="#5138e0" fill-rule="evenodd"/><path d="M 130.768 53.725 C 132.565 53.947, 135.265 53.943, 136.768 53.715 C 138.271 53.486, 136.800 53.304, 133.500 53.310 C 130.200 53.315, 128.971 53.502, 130.768 53.725 M 83.079 77.628 C 82.958 79.362, 85.689 81.312, 86.470 80.049 C 86.826 79.472, 86.454 79, 85.642 79 C 84.831 79, 83.940 78.438, 83.662 77.750 C 83.345 76.965, 83.129 76.919, 83.079 77.628" stroke="none" fill="#61c5ff" fill-rule="evenodd"/><path d="M 87.698 20.032 C 77.668 22.560, 65.081 31.351, 60.693 38.894 C 58.943 41.904, 58.945 42, 60.749 42 C 64.204 42, 75.487 37.801, 77.160 35.893 C 78.073 34.852, 79.446 34, 80.210 34 C 80.975 34, 82.131 33.469, 82.780 32.820 C 84.066 31.534, 87.648 32.869, 91.500 36.071 C 94.519 38.581, 105.786 42, 111.035 42 C 113.591 42, 117.891 42.670, 120.591 43.489 C 127.031 45.443, 127 45.449, 127 42.200 C 127 40.660, 127.540 38.860, 128.200 38.200 C 129.133 37.267, 128.485 37, 125.282 37 C 120.203 37, 118 36.211, 118 34.393 C 118 33.371, 119.466 33, 123.500 33 C 126.525 33, 129 32.554, 129 32.010 C 129 30.340, 119.814 24.150, 114 21.903 C 107.747 19.486, 93.803 18.494, 87.698 20.032 M 139.500 53 C 139.160 53.550, 136.096 54.004, 132.691 54.008 C 128.412 54.014, 124.194 54.871, 119.036 56.781 C 112.193 59.316, 111.517 59.820, 110.899 62.840 C 110.237 66.074, 112.653 76.310, 115.421 82 C 116.641 84.508, 116.948 84.559, 123.259 83.315 C 124.808 83.009, 126.687 83.326, 127.543 84.036 C 128.699 84.995, 129.605 85.031, 131.284 84.186 C 132.503 83.572, 134.837 82.942, 136.470 82.785 C 139.121 82.531, 139.625 81.910, 141.159 77 C 144.329 66.855, 142.982 47.366, 139.500 53 M 53 63.875 C 53 70.280, 53.887 76.008, 54.875 75.987 C 55.219 75.979, 56.234 73.653, 57.132 70.817 C 58.844 65.405, 58.278 60.429, 55.768 58.836 C 53.379 57.319, 53 58.009, 53 63.875 M 67.321 66.189 C 65.280 67.176, 60 78.938, 60 82.498 C 60 84.793, 61.798 85.179, 64.436 83.450 C 66.721 81.953, 67.192 81.949, 70.114 83.407 C 74.454 85.572, 76 84.125, 76 77.897 C 76 73.584, 76.273 72.970, 78.433 72.427 C 81.204 71.732, 80.881 69, 78.028 69 C 77.061 69, 75.126 68.100, 73.727 67 C 70.877 64.758, 70.404 64.698, 67.321 66.189 M 95 66.974 C 93.625 68.064, 91.713 68.966, 90.750 68.978 C 89.787 68.990, 89 69.188, 89 69.418 C 89 69.648, 88.727 70.548, 88.393 71.418 C 87.935 72.611, 88.427 73, 90.393 73 C 92.880 73, 93 73.248, 93 78.393 C 93 84.554, 94.573 85.981, 98.516 83.397 C 100.712 81.959, 101.210 81.958, 104.085 83.393 C 105.822 84.259, 107.665 84.707, 108.180 84.389 C 109.419 83.623, 108.301 78.767, 105.337 72.050 C 102.490 65.596, 103.068 66.297, 99.998 65.577 C 98.327 65.186, 96.672 65.648, 95 66.974 M 80.832 77.470 C 79.971 79.359, 80.005 80.301, 80.975 81.470 C 84.185 85.337, 90.359 81.408, 88 77 C 86.450 74.103, 82.240 74.380, 80.832 77.470 M 83.992 77.005 C 82.690 77.810, 82.718 78.146, 84.213 79.641 C 85.831 81.260, 85.964 81.258, 86.596 79.610 C 87.466 77.342, 85.931 75.807, 83.992 77.005" stroke="none" fill="#4ab5fc" fill-rule="evenodd"/><path d="M 76.750 36.984 C 75.237 38.573, 74 40.351, 74 40.936 C 74 41.598, 71.031 42, 66.152 42 L 58.303 42 56.732 46 L 55.161 50 64.089 50 C 72.556 50, 72.957 49.903, 71.851 48.132 C 71.209 47.105, 70.966 45.530, 71.311 44.632 C 71.856 43.211, 74.235 42.991, 89.719 42.931 L 107.500 42.862 100.064 40.594 C 95.292 39.138, 92.113 37.550, 91.192 36.163 C 88.854 32.642, 87 33.454, 87 38 C 87 41.600, 86.750 42, 84.500 42 C 82.250 42, 82 41.600, 82 38 C 82 33.200, 80.610 32.931, 76.750 36.984 M 125 35.500 C 125 36.433, 125.944 37, 127.500 37 C 129.056 37, 130 36.433, 130 35.500 C 130 34.567, 129.056 34, 127.500 34 C 125.944 34, 125 34.567, 125 35.500 M 135 35.570 C 135 36.612, 135.729 37.032, 137.172 36.820 C 140.373 36.348, 140.716 34, 137.583 34 C 135.903 34, 135 34.549, 135 35.570 M 72.930 51.584 C 72.207 52.455, 71.423 55.830, 71.188 59.084 C 70.764 64.933, 70.790 65, 73.426 65 C 75.342 65, 76.573 64.157, 77.797 62.006 C 79.310 59.346, 80.026 59.012, 84.224 59.006 C 88.478 59.001, 89.105 59.303, 90.520 62.038 C 91.837 64.586, 92.688 65.078, 95.795 65.093 C 97.833 65.103, 101.688 65.198, 104.361 65.305 C 109.068 65.494, 109.259 65.391, 110.361 62.082 C 111.411 58.931, 112.160 58.443, 119.955 55.832 C 125.361 54.021, 130.499 53, 134.205 53 C 138.689 53, 140 52.661, 140 51.500 C 140 50.197, 135.680 50, 107.122 50 C 78.342 50, 74.081 50.197, 72.930 51.584 M 63 59.393 C 63 59.609, 63.698 60.054, 64.552 60.382 C 65.442 60.723, 65.843 60.555, 65.493 59.989 C 64.906 59.038, 63 58.583, 63 59.393 M 103.688 59.646 C 102.272 61.061, 103.073 63, 105.073 63 C 106.471 63, 107.041 62.457, 106.823 61.333 C 106.466 59.492, 104.759 58.574, 103.688 59.646 M 64 63 C 63.099 63.582, 62.975 63.975, 63.691 63.985 C 64.346 63.993, 65.160 63.550, 65.500 63 C 66.267 61.758, 65.921 61.758, 64 63" stroke="none" fill="#e1e3f7" fill-rule="evenodd"/><path d="M 82.701 33.632 C 82.316 34.018, 82 36.058, 82 38.167 C 82 41.612, 82.259 42, 84.557 42 C 86.947 42, 87.095 41.722, 86.807 37.759 C 86.514 33.709, 84.574 31.759, 82.701 33.632 M 68 40.500 L 64.500 41.848 69.250 41.924 C 72.839 41.981, 74 41.633, 74 40.500 C 74 38.704, 72.664 38.704, 68 40.500 M 108.750 42.706 C 109.987 42.944, 112.013 42.944, 113.250 42.706 C 114.487 42.467, 113.475 42.272, 111 42.272 C 108.525 42.272, 107.513 42.467, 108.750 42.706 M 133.269 46.693 C 134.242 46.947, 135.592 46.930, 136.269 46.656 C 136.946 46.382, 136.150 46.175, 134.500 46.195 C 132.850 46.215, 132.296 46.439, 133.269 46.693 M 54.677 50.750 C 54.434 51.163, 53.946 52.851, 53.593 54.502 C 53.059 56.995, 53.335 57.673, 55.222 58.502 C 56.625 59.118, 57.689 60.648, 58.002 62.500 C 58.412 64.921, 59.070 65.564, 61.413 65.832 C 63.009 66.014, 65.820 65.881, 67.658 65.536 C 70.884 64.931, 71 64.746, 71.006 60.205 C 71.010 57.617, 71.658 54.263, 72.447 52.750 L 73.881 50 64.500 50 C 59.340 50, 54.919 50.337, 54.677 50.750 M 62.336 60.567 C 61.502 62.739, 63.618 64.782, 65.133 63.267 C 66.413 61.987, 65.620 59, 64 59 C 63.415 59, 62.667 59.705, 62.336 60.567 M 77.797 62.006 C 76.721 63.896, 75.288 65, 73.912 65 C 71.790 65, 71.800 65.055, 74.273 67 C 77.919 69.868, 90.711 69.889, 94.139 67.033 L 96.500 65.067 94.276 65.033 C 92.835 65.012, 91.505 63.943, 90.500 62 C 89.107 59.307, 88.465 59.001, 84.224 59.006 C 80.026 59.012, 79.310 59.346, 77.797 62.006" stroke="none" fill="#d8d3ec" fill-rule="evenodd"/><path d="M 118.500 35 C 118.840 35.550, 120.441 36, 122.059 36 C 123.677 36, 125 35.550, 125 35 C 125 34.450, 123.398 34, 121.441 34 C 119.323 34, 118.132 34.405, 118.500 35 M 140 35 C 140 35.550, 141.323 36, 142.941 36 C 144.559 36, 146.160 35.550, 146.500 35 C 146.868 34.405, 145.677 34, 143.559 34 C 141.602 34, 140 34.450, 140 35 M 71.309 44.636 C 70.964 45.536, 71.140 46.998, 71.699 47.886 C 72.598 49.310, 76.669 49.531, 106.359 49.763 C 135.843 49.994, 140 49.840, 140 48.513 C 140 46.860, 139.477 46.738, 133.412 46.973 C 131.163 47.060, 126.679 46.202, 123.446 45.066 C 118.167 43.210, 115.247 43, 94.753 43 C 74.552 43, 71.865 43.188, 71.309 44.636 M 103.688 59.646 C 102.272 61.061, 103.073 63, 105.073 63 C 106.471 63, 107.041 62.457, 106.823 61.333 C 106.466 59.492, 104.759 58.574, 103.688 59.646 M 62 61.500 C 62 62.530, 62.655 63.020, 63.750 62.810 C 65.858 62.404, 65.725 60.629, 63.553 60.177 C 62.647 59.988, 62 60.539, 62 61.500" stroke="none" fill="#f4f2fa" fill-rule="evenodd"/><path d="M 83.813 32.683 C 84.534 32.972, 85.397 32.936, 85.729 32.604 C 86.061 32.272, 85.471 32.036, 84.417 32.079 C 83.252 32.127, 83.015 32.364, 83.813 32.683 M 120.768 33.725 C 122.565 33.947, 125.265 33.943, 126.768 33.715 C 128.271 33.486, 126.800 33.304, 123.500 33.310 C 120.200 33.315, 118.971 33.502, 120.768 33.725 M 140.813 36.683 C 141.534 36.972, 142.397 36.936, 142.729 36.604 C 143.061 36.272, 142.471 36.036, 141.417 36.079 C 140.252 36.127, 140.015 36.364, 140.813 36.683 M 87.589 85.856 C 87.298 86.326, 88.172 86.499, 89.530 86.239 C 90.889 85.979, 92 85.594, 92 85.383 C 92 84.610, 88.101 85.027, 87.589 85.856 M 83.813 88.683 C 84.534 88.972, 85.397 88.936, 85.729 88.604 C 86.061 88.272, 85.471 88.036, 84.417 88.079 C 83.252 88.127, 83.015 88.364, 83.813 88.683 M 96.250 109.689 C 97.213 109.941, 98.787 109.941, 99.750 109.689 C 100.713 109.438, 99.925 109.232, 98 109.232 C 96.075 109.232, 95.287 109.438, 96.250 109.689 M 81.829 130 C 81.619 132.200, 81.797 134, 82.224 134 C 82.651 134, 83 132.455, 83 130.566 C 83 127.588, 83.365 127.078, 85.750 126.716 C 88.393 126.316, 88.378 126.294, 85.355 126.150 C 82.386 126.008, 82.189 126.223, 81.829 130 M 124.116 128.250 C 124.198 129.846, 124.362 130.009, 124.678 128.810 C 124.923 127.881, 126.333 126.936, 127.812 126.710 C 130.239 126.340, 130.184 126.285, 127.250 126.150 C 124.471 126.022, 124.017 126.326, 124.116 128.250 M 48.750 127.706 C 49.987 127.944, 52.013 127.944, 53.250 127.706 C 54.487 127.467, 53.475 127.272, 51 127.272 C 48.525 127.272, 47.513 127.467, 48.750 127.706 M 62.355 141.500 C 62.352 146.450, 62.521 148.601, 62.731 146.280 C 62.940 143.959, 62.943 139.909, 62.736 137.280 C 62.530 134.651, 62.358 136.550, 62.355 141.500 M 124.355 141.500 C 124.352 146.450, 124.521 148.601, 124.731 146.280 C 124.940 143.959, 124.943 139.909, 124.736 137.280 C 124.530 134.651, 124.358 136.550, 124.355 141.500 M 133.355 141.500 C 133.352 146.450, 133.521 148.601, 133.731 146.280 C 133.940 143.959, 133.943 139.909, 133.736 137.280 C 133.530 134.651, 133.358 136.550, 133.355 141.500 M 113 137.941 C 113 138.459, 113.445 139.157, 113.989 139.493 C 114.555 139.843, 114.723 139.442, 114.382 138.552 C 113.717 136.820, 113 136.503, 113 137.941 M 79.252 141.500 C 79.263 143.700, 79.468 144.482, 79.707 143.238 C 79.946 141.994, 79.937 140.194, 79.687 139.238 C 79.437 138.282, 79.241 139.300, 79.252 141.500 M 82.252 141.500 C 82.263 143.700, 82.468 144.482, 82.707 143.238 C 82.946 141.994, 82.937 140.194, 82.687 139.238 C 82.437 138.282, 82.241 139.300, 82.252 141.500 M 147.320 144 C 147.320 147.575, 147.502 149.037, 147.723 147.250 C 147.945 145.463, 147.945 142.537, 147.723 140.750 C 147.502 138.963, 147.320 140.425, 147.320 144 M 150.320 144 C 150.320 147.575, 150.502 149.037, 150.723 147.250 C 150.945 145.463, 150.945 142.537, 150.723 140.750 C 150.502 138.963, 150.320 140.425, 150.320 144 M 109.250 144.689 C 110.213 144.941, 111.787 144.941, 112.750 144.689 C 113.713 144.438, 112.925 144.232, 111 144.232 C 109.075 144.232, 108.287 144.438, 109.250 144.689 M 50.269 146.693 C 51.242 146.947, 52.592 146.930, 53.269 146.656 C 53.946 146.382, 53.150 146.175, 51.500 146.195 C 49.850 146.215, 49.296 146.439, 50.269 146.693 M 47.158 158 C 47.158 159.375, 47.385 159.938, 47.662 159.250 C 47.940 158.563, 47.940 157.438, 47.662 156.750 C 47.385 156.063, 47.158 156.625, 47.158 158 M 53.158 158 C 53.158 159.375, 53.385 159.938, 53.662 159.250 C 53.940 158.563, 53.940 157.438, 53.662 156.750 C 53.385 156.063, 53.158 156.625, 53.158 158 M 102.389 168.500 C 102.390 175.650, 102.550 178.444, 102.742 174.708 C 102.935 170.973, 102.934 165.123, 102.739 161.708 C 102.545 158.294, 102.387 161.350, 102.389 168.500 M 108.389 168.500 C 108.390 175.650, 108.550 178.444, 108.742 174.708 C 108.935 170.973, 108.934 165.123, 108.739 161.708 C 108.545 158.294, 108.387 161.350, 108.389 168.500 M 47.360 172 C 47.360 177.225, 47.529 179.363, 47.735 176.750 C 47.941 174.137, 47.941 169.863, 47.735 167.250 C 47.529 164.637, 47.360 166.775, 47.360 172 M 53.360 172 C 53.360 177.225, 53.529 179.363, 53.735 176.750 C 53.941 174.137, 53.941 169.863, 53.735 167.250 C 53.529 164.637, 53.360 166.775, 53.360 172 M 141.328 171.500 C 141.333 175.350, 141.513 176.802, 141.730 174.728 C 141.946 172.653, 141.943 169.503, 141.722 167.728 C 141.501 165.952, 141.324 167.650, 141.328 171.500 M 37.793 167.568 C 39.024 168.430, 41.036 168.941, 42.265 168.704 C 44.204 168.330, 44.143 168.254, 41.809 168.136 C 40.329 168.061, 38.840 167.550, 38.500 167 C 38.160 166.450, 37.358 166, 36.718 166 C 36.079 166, 36.562 166.705, 37.793 167.568 M 156.310 171.500 C 156.315 174.800, 156.502 176.029, 156.725 174.232 C 156.947 172.435, 156.943 169.735, 156.715 168.232 C 156.486 166.729, 156.304 168.200, 156.310 171.500 M 117.252 171.500 C 117.263 173.700, 117.468 174.482, 117.707 173.238 C 117.946 171.994, 117.937 170.194, 117.687 169.238 C 117.437 168.282, 117.241 169.300, 117.252 171.500 M 44.195 175.500 C 44.215 177.150, 44.439 177.704, 44.693 176.731 C 44.947 175.758, 44.930 174.408, 44.656 173.731 C 44.382 173.054, 44.175 173.850, 44.195 175.500 M 119 176 C 118.099 176.582, 117.975 176.975, 118.691 176.985 C 119.346 176.993, 120.160 176.550, 120.500 176 C 121.267 174.758, 120.921 174.758, 119 176" stroke="none" fill="#63bcee" fill-rule="evenodd"/><path d="M 95.762 18.707 C 97.006 18.946, 98.806 18.937, 99.762 18.687 C 100.718 18.437, 99.700 18.241, 97.500 18.252 C 95.300 18.263, 94.518 18.468, 95.762 18.707 M 131.639 28.694 C 130.548 29.785, 130.933 30.667, 132.500 30.667 C 133.325 30.667, 134 30.318, 134 29.892 C 134 28.766, 132.387 27.947, 131.639 28.694 M 131.079 35.583 C 131.127 36.748, 131.364 36.985, 131.683 36.188 C 131.972 35.466, 131.936 34.603, 131.604 34.271 C 131.272 33.939, 131.036 34.529, 131.079 35.583 M 129.750 38.662 C 130.438 38.940, 131 40.704, 131 42.583 C 131 45.718, 131.249 46, 134.021 46 C 136.283 46, 137.333 45.364, 138.194 43.473 C 139.742 40.076, 138.191 38.624, 132.733 38.361 C 130.405 38.249, 129.063 38.385, 129.750 38.662 M 143.158 61 C 143.158 62.375, 143.385 62.938, 143.662 62.250 C 143.940 61.563, 143.940 60.438, 143.662 59.750 C 143.385 59.063, 143.158 59.625, 143.158 61 M 52.272 64 C 52.272 66.475, 52.467 67.487, 52.706 66.250 C 52.944 65.013, 52.944 62.987, 52.706 61.750 C 52.467 60.513, 52.272 61.525, 52.272 64 M 143.195 67.500 C 143.215 69.150, 143.439 69.704, 143.693 68.731 C 143.947 67.758, 143.930 66.408, 143.656 65.731 C 143.382 65.054, 143.175 65.850, 143.195 67.500 M 85.322 70.326 C 80.836 71.983, 80.178 73, 83.593 73 C 85.436 73, 86.981 72.260, 87.768 71 C 88.455 69.900, 88.901 69.034, 88.758 69.076 C 88.616 69.118, 87.070 69.680, 85.322 70.326 M 83.813 74.683 C 84.534 74.972, 85.397 74.936, 85.729 74.604 C 86.061 74.272, 85.471 74.036, 84.417 74.079 C 83.252 74.127, 83.015 74.364, 83.813 74.683 M 55 79.441 C 55 80.234, 55.408 81.134, 55.907 81.442 C 56.405 81.751, 56.578 81.102, 56.290 80.001 C 55.679 77.666, 55 77.371, 55 79.441 M 82.250 86.250 C 82.479 86.938, 83.492 87.500, 84.500 87.500 C 85.508 87.500, 86.521 86.938, 86.750 86.250 C 87.014 85.458, 86.189 85, 84.500 85 C 82.811 85, 81.986 85.458, 82.250 86.250 M 129.872 96.750 C 128.629 98.336, 128.664 98.371, 130.250 97.128 C 131.213 96.373, 132 95.585, 132 95.378 C 132 94.555, 131.179 95.084, 129.872 96.750 M 110.667 97.667 C 109.292 99.041, 110.032 102, 111.750 102 C 112.950 102, 113.500 101.214, 113.500 99.500 C 113.500 97.124, 112.109 96.224, 110.667 97.667" stroke="none" fill="#543ee3" fill-rule="evenodd"/></svg>